<svg width="653" height="199" viewBox="0 0 653 199" fill="none" xmlns="http://www.w3.org/2000/svg">
<path d="M185.347 131.544C184.483 129.949 182.899 128.874 181.999 129.22C181.971 129.232 181.945 129.216 181.914 129.204C182.861 127.368 182.078 124.746 180.782 123.333C179.671 122.127 178.314 121.857 177.233 122.621C177.216 122.611 177.175 122.55 177.186 122.459C177.593 119.102 176.227 117.863 175.376 117.422C173.932 116.677 171.896 117.157 170.495 118.537C170.486 118.503 170.479 118.467 170.477 118.436C170.335 115.792 169.068 114.574 167.931 114.315C166.687 114.027 165.43 114.742 164.574 116.201C164.467 115.993 164.352 115.75 164.275 115.584C164.109 115.23 163.963 114.922 163.837 114.744C163.505 114.272 163.117 113.889 162.698 113.551V32.7278H164.568L165.384 31.833V26.4542L164.568 25.5594H156.6C156.663 25.4218 156.705 25.274 156.705 25.11V21.1442C156.705 20.5794 156.288 20.1219 155.773 20.1219H152.559V11.413C152.559 10.8482 152.142 10.3907 151.627 10.3907H147.393C146.878 10.3907 146.461 10.8482 146.461 11.413V25.108C146.461 25.272 146.503 25.4198 146.566 25.5574H144.637C144.7 25.4198 144.742 25.272 144.742 25.108V21.2779C144.742 20.8305 144.482 20.4519 144.116 20.3122C144.146 20.2151 144.161 20.1098 144.161 20.0005V16.4214C144.161 16.2857 144.137 16.1582 144.094 16.0387C144.307 15.8505 144.443 15.563 144.443 15.2411V11.411C144.443 10.8462 144.026 10.3887 143.511 10.3887H134.921C134.406 10.3887 133.988 10.8462 133.988 11.411V25.106C133.988 25.2699 134.031 25.4177 134.094 25.5554H129.553C129.616 25.4177 129.658 25.2699 129.658 25.106V16.3201H131.796C132.311 16.3201 132.728 15.8626 132.728 15.2978V11.409C132.728 10.8442 132.311 10.3867 131.796 10.3867H121.459C120.944 10.3867 120.527 10.8442 120.527 11.409V15.2978C120.527 15.8626 120.944 16.3201 121.459 16.3201H123.596V25.106C123.596 25.2699 123.639 25.4177 123.702 25.5554H116.254C116.918 25.1971 117.54 24.778 118.068 24.2395C118.786 23.5027 119.351 22.6099 119.753 21.5815C120.154 20.5552 120.359 19.4114 120.359 18.1805C120.359 16.9477 120.154 15.81 119.75 14.7998C119.349 13.7917 118.779 12.9151 118.059 12.1985C117.343 11.4899 116.497 10.9413 115.543 10.5648C114.602 10.1903 113.57 10 112.475 10C111.382 10 110.351 10.1903 109.406 10.5648C108.448 10.9434 107.604 11.494 106.899 12.2005C106.186 12.9151 105.622 13.7876 105.217 14.7978C104.815 15.8059 104.61 16.9416 104.61 18.1785C104.61 19.4114 104.813 20.5552 105.214 21.5795C105.616 22.6079 106.179 23.5006 106.888 24.2314C107.41 24.7719 108.032 25.193 108.699 25.5513H102.768C102.831 25.4137 102.873 25.2659 102.873 25.1019V11.4069C102.873 10.8421 102.456 10.3846 101.941 10.3846H97.7251C97.2101 10.3846 96.793 10.8421 96.793 11.4069V15.0346H95.2351V11.415C95.2351 10.8502 94.8179 10.3927 94.3029 10.3927H90.1221C89.6071 10.3927 89.19 10.8502 89.19 11.415V25.11C89.19 25.274 89.2324 25.4218 89.2952 25.5594H79.4421L78.63 26.4542V31.833L79.4458 32.7278H81.3157V114.661C81.264 114.693 81.2012 114.701 81.1625 114.756C81.0369 114.934 80.893 115.242 80.725 115.596C80.6475 115.762 80.533 116.005 80.426 116.211C79.5695 114.754 78.3106 114.037 77.0684 114.325C75.9295 114.584 74.6651 115.803 74.523 118.442C74.5211 118.475 74.5156 118.511 74.5045 118.546C73.1035 117.165 71.0713 116.677 69.6241 117.43C68.7732 117.869 67.4073 119.11 67.8134 122.465C67.8208 122.534 67.8005 122.584 67.8171 122.613C66.6634 121.87 65.316 122.143 64.2158 123.339C62.9219 124.75 62.1393 127.368 63.088 129.208C63.0604 129.22 63.0345 129.228 63.0271 129.228C62.095 128.866 60.5168 129.949 59.6529 131.544C59.042 132.67 57.9843 135.64 61.3474 138.872L61.6557 139H78.414H96.361H148.642H165.602H183.346L183.654 138.872C187.016 135.64 185.958 132.67 185.347 131.544ZM151.629 11.415V21.1442H155.775V25.11H147.397V11.415H151.629ZM134.919 11.415H134.921H143.511V15.2452H138.871V16.4254H143.229V20.0045H138.871V21.2819H143.808V25.112H134.919V11.415ZM121.459 15.3039V11.415H131.796V15.3039H128.726V25.112H124.528V15.3039H121.459ZM107.53 23.4966C106.912 22.8569 106.426 22.0856 106.074 21.1847C105.721 20.2819 105.546 19.2818 105.546 18.1866C105.546 17.0894 105.721 16.0995 106.074 15.2168C106.426 14.3322 106.912 13.5832 107.53 12.9637C108.147 12.3463 108.879 11.8685 109.725 11.5345C110.572 11.1984 111.49 11.0304 112.477 11.0304C113.466 11.0304 114.382 11.1984 115.229 11.5345C116.076 11.8685 116.811 12.3463 117.435 12.9637C118.057 13.5832 118.546 14.3342 118.897 15.2168C119.249 16.1015 119.427 17.0894 119.427 18.1866C119.427 19.2818 119.249 20.2819 118.897 21.1847C118.546 22.0856 118.057 22.8569 117.435 23.4966C116.811 24.1343 116.076 24.6262 115.229 24.9764C114.384 25.3246 113.466 25.4987 112.477 25.4987C111.49 25.4987 110.572 25.3246 109.725 24.9764C108.879 24.6282 108.147 24.1343 107.53 23.4966ZM90.1221 11.415H90.124H94.3048V16.057H97.727V11.415H101.943V25.11H97.7436V19.9073H94.3214V25.11H90.1221V11.415ZM96.9185 25.5615H95.1502C95.2129 25.4238 95.2554 25.274 95.2554 25.112V20.9317H96.8133V25.112C96.8133 25.276 96.8557 25.4238 96.9185 25.5615ZM80.2598 30.9403V27.349H163.752V30.9403H80.2598ZM132.154 89.4713H111.861L111.045 90.3661V132.317H82.9474V32.7278H161.067V132.317H132.969V90.3661L132.154 89.4713ZM131.338 91.2609V131.933H112.676V91.2609H131.338ZM77.6 133.392V137.994H61.8329C59.2432 135.407 59.8523 133.174 60.4559 132.062C61.209 130.674 62.418 130.085 62.7152 130.188C63.0936 130.334 63.6233 130.16 63.8854 129.811C64.1106 129.514 64.1291 129.127 63.9353 128.779C63.1693 127.404 63.8042 125.228 64.8785 124.058C65.3473 123.548 66.2906 122.795 67.3759 123.505C67.6583 123.69 67.998 123.677 68.2822 123.475C68.6163 123.236 68.7954 122.787 68.7418 122.333C68.4982 120.319 68.956 118.902 70.0302 118.347C71.2171 117.724 72.9799 118.24 74.1132 119.544C74.2812 119.738 74.5304 119.803 74.7629 119.71C75.1598 119.552 75.433 118.963 75.4588 118.507C75.5511 116.772 76.2433 115.552 77.2659 115.321C78.2183 115.098 79.2317 115.821 79.8796 117.205C79.9848 117.428 80.1749 117.56 80.389 117.56C80.7508 117.56 80.9963 117.207 81.3193 116.558V132.498H78.4159L77.6 133.392ZM164.784 137.214H79.228V134.283H164.784V137.214ZM183.167 137.99H166.416V133.388L165.6 132.494H162.697V114.912C162.833 115.058 162.975 115.193 163.097 115.365C163.186 115.491 163.306 115.758 163.442 116.048C163.904 117.035 164.166 117.548 164.614 117.548C164.829 117.548 165.019 117.414 165.124 117.193C165.772 115.809 166.789 115.092 167.738 115.309C168.758 115.541 169.451 116.762 169.545 118.499C169.571 118.952 169.844 119.542 170.241 119.702C170.473 119.795 170.72 119.73 170.892 119.533C172.024 118.232 173.785 117.716 174.973 118.339C176.048 118.894 176.505 120.311 176.262 122.327C176.206 122.781 176.387 123.23 176.721 123.469C177.006 123.671 177.345 123.688 177.629 123.497C178.707 122.793 179.656 123.54 180.123 124.052C181.197 125.222 181.832 127.4 181.066 128.777C180.873 129.123 180.891 129.51 181.116 129.807C181.38 130.157 181.914 130.332 182.285 130.184C182.602 130.076 183.793 130.674 184.546 132.06C185.148 133.172 185.757 135.407 183.167 137.99Z" fill="#FFFBFB"/>
<path d="M89.5795 64.7617L88.8817 65.5269V83.9549L89.5795 84.7201H104.215L104.913 83.9549V65.5269L104.215 64.7617H89.5795ZM103.516 83.1917H90.2772V66.2941H103.516V83.1917Z" fill="#FFFBFB"/>
<path d="M102.378 81.8678L102.611 81.6127V69.5514C102.611 69.4097 102.506 69.2963 102.378 69.2963C102.251 69.2963 102.146 69.4117 102.146 69.5514V74.6832H91.6505V68.1282H95.6357H96.051H99.1206C99.2498 68.1282 99.3532 68.0129 99.3532 67.8732C99.3532 67.7335 99.248 67.6181 99.1206 67.6181H96.051H95.6357H91.4179L91.1854 67.8732V81.6127L91.4179 81.8678H102.378ZM91.6505 75.1954H102.146V81.3576H91.6505V75.1954Z" fill="#FFFBFB"/>
<path d="M127.936 126.149L128.401 125.639V96.828L127.936 96.3178H116.08L115.615 96.828V125.639L116.08 126.149H127.936ZM116.545 97.3381H127.469V125.129H116.545V97.3381Z" fill="#FFFBFB"/>
<path d="M118.242 103.124L117.891 103.508V106.229L118.242 106.614H125.771L126.121 106.229V103.508L125.771 103.124H118.242ZM125.42 105.847H118.592V103.893H125.42V105.847Z" fill="#FFFBFB"/>
<path d="M114.074 111.602C114.293 111.602 114.515 111.533 114.712 111.391C114.973 111.203 115.15 110.914 115.213 110.58C115.273 110.246 115.214 109.906 115.043 109.622C114.688 109.033 113.967 108.869 113.429 109.258C112.892 109.644 112.745 110.44 113.099 111.027C113.322 111.4 113.695 111.602 114.074 111.602ZM113.686 109.685C114.002 109.456 114.441 109.549 114.653 109.903C114.757 110.074 114.792 110.276 114.755 110.476C114.718 110.677 114.613 110.849 114.454 110.964C114.138 111.191 113.701 111.1 113.487 110.746C113.274 110.393 113.365 109.916 113.686 109.685Z" fill="#FFFBFB"/>
<path d="M140.585 64.9601L139.888 65.7253V84.1533L140.585 84.9185H155.221L155.919 84.1533V65.7253L155.221 64.9601H140.585ZM154.523 83.3881H141.285V66.4905H154.523V83.3881Z" fill="#FFFBFB"/>
<path d="M153.384 82.0661V82.0641L153.617 81.809V69.7498C153.617 69.6081 153.512 69.4947 153.384 69.4947C153.255 69.4947 153.152 69.6101 153.152 69.7498V74.8816H142.655V68.3266H146.642H147.057H150.127C150.256 68.3266 150.359 68.2112 150.359 68.0716C150.359 67.9319 150.254 67.8165 150.127 67.8165H147.057H146.642H142.422L142.189 68.0716V81.8111L142.422 82.0661H153.384ZM142.655 75.3897H153.152V81.5519H142.655V75.3897Z" fill="#FFFBFB"/>
<path d="M115.453 64.9601L114.755 65.7253V84.1533L115.453 84.9185H130.088L130.786 84.1533V65.7253L130.088 64.9601H115.453ZM129.39 83.3881H116.152V66.4905H129.39V83.3881Z" fill="#FFFBFB"/>
<path d="M128.252 82.0661V82.0641L128.484 81.809V69.7498C128.484 69.6081 128.379 69.4947 128.252 69.4947C128.122 69.4947 128.019 69.6101 128.019 69.7498V74.8816H117.524V68.3266H121.509H121.924H124.994C125.123 68.3266 125.226 68.2112 125.226 68.0716C125.226 67.9319 125.121 67.8165 124.994 67.8165H121.924H121.509H117.291L117.058 68.0716V81.8111L117.291 82.0661H128.252ZM117.524 75.3897H128.019V81.5519H117.524V75.3897Z" fill="#FFFBFB"/>
<path d="M89.5795 94.8906L88.8817 95.6558V114.082L89.5795 114.847H104.215L104.913 114.082V95.6558L104.215 94.8906H89.5795ZM103.516 113.317H90.2772V96.4211H103.516V113.317Z" fill="#FFFBFB"/>
<path d="M102.378 111.995L102.611 111.74V99.6783C102.611 99.5366 102.506 99.4232 102.378 99.4232C102.251 99.4232 102.146 99.5386 102.146 99.6783V104.81H91.6505V98.2552H95.6357H96.051H99.1206C99.2498 98.2552 99.3532 98.1398 99.3532 98.0001C99.3532 97.8584 99.248 97.745 99.1206 97.745H96.051H95.6357H91.4179L91.1854 98.0001V111.74L91.4179 111.995H102.378ZM91.6505 105.32H102.146V111.483H91.6505V105.32Z" fill="#FFFBFB"/>
<path d="M155.02 113.489L155.718 112.723V94.2955L155.02 93.5302H140.384L139.686 94.2955V112.723L140.384 113.489H155.02ZM141.084 95.0607H154.322V111.958H141.084V95.0607Z" fill="#FFFBFB"/>
<path d="M153.183 98.0628C153.054 98.0628 152.951 98.1782 152.951 98.3179V103.45H142.455V96.8968H146.44H146.856H149.927C150.056 96.8968 150.16 96.7814 150.16 96.6417C150.16 96.5 150.055 96.3867 149.927 96.3867H146.856H146.44H142.223L141.99 96.6417V110.379L142.223 110.634H153.183L153.416 110.379V98.3179C153.416 98.1762 153.312 98.0628 153.183 98.0628ZM152.951 110.122H142.455V103.96H152.951V110.122Z" fill="#FFFBFB"/>
<path d="M104.165 58.563L104.863 57.7978V39.3678L104.165 38.6026H89.5297L88.8319 39.3678V57.7958L89.5297 58.563H104.165ZM90.2274 40.135H103.466V57.0326H90.2274V40.135Z" fill="#FFFBFB"/>
<path d="M102.329 43.1372C102.199 43.1372 102.096 43.2526 102.096 43.3923V48.5241H91.5988V41.9691H95.5858H96.0011H99.0708C99.2 41.9691 99.3033 41.8537 99.3033 41.714C99.3033 41.5744 99.1981 41.459 99.0708 41.459H96.0011H95.5858H91.3662L91.1337 41.714V55.4536L91.3662 55.7086H102.329L102.561 55.4536V43.3923C102.561 43.2505 102.456 43.1372 102.329 43.1372ZM102.096 55.1985H91.5988V49.0362H102.096V55.1985Z" fill="#FFFBFB"/>
<path d="M155.169 58.7594L155.867 57.9942V39.5662L155.169 38.8009H140.536L139.838 39.5662V57.9942L140.536 58.7594H155.169ZM141.233 40.3314H154.47V57.2289H141.233V40.3314Z" fill="#FFFBFB"/>
<path d="M153.333 43.3336C153.204 43.3336 153.1 43.4489 153.1 43.5886V48.7204H142.605V42.1655H146.59H147.005H150.077C150.206 42.1655 150.309 42.0501 150.309 41.9104C150.309 41.7687 150.204 41.6553 150.077 41.6553H147.005H146.59H142.372L142.14 41.9104V55.6499L142.372 55.905H153.333L153.565 55.6499V43.5906C153.565 43.4489 153.462 43.3336 153.333 43.3336ZM153.1 55.3928H142.605V49.2306H153.1V55.3928Z" fill="#FFFBFB"/>
<path d="M130.038 58.7594L130.736 57.9942V39.5662L130.038 38.8009H115.403L114.705 39.5662V57.9942L115.403 58.7594H130.038ZM116.102 40.3314H129.341V57.2289H116.102V40.3314Z" fill="#FFFBFB"/>
<path d="M128.202 43.3336C128.072 43.3336 127.969 43.4489 127.969 43.5886V48.7204H117.472V42.1655H121.459H121.874H124.944C125.073 42.1655 125.176 42.0501 125.176 41.9104C125.176 41.7687 125.071 41.6553 124.944 41.6553H121.874H121.459H117.239L117.007 41.9104V55.6499L117.239 55.905H128.202L128.434 55.6499V43.5906C128.436 43.4489 128.331 43.3336 128.202 43.3336ZM127.971 55.3928H117.474V49.2306H127.971V55.3928Z" fill="#FFFBFB"/>
<path d="M110.705 20.3912C110.923 20.6624 111.185 20.871 111.49 21.0208C111.794 21.1706 112.125 21.2434 112.477 21.2434C112.83 21.2434 113.156 21.1685 113.457 21.0208C113.758 20.873 114.018 20.6624 114.242 20.3912C114.465 20.1199 114.639 19.798 114.762 19.4235C114.886 19.051 114.947 18.636 114.947 18.1866C114.947 17.7473 114.886 17.3445 114.762 16.976C114.639 16.6096 114.465 16.2999 114.242 16.0489C114.018 15.7978 113.756 15.5995 113.457 15.4598C113.156 15.3181 112.831 15.2472 112.477 15.2472C112.126 15.2472 111.794 15.3181 111.49 15.4598C111.185 15.6015 110.923 15.7978 110.705 16.0489C110.489 16.2999 110.317 16.6096 110.194 16.976C110.07 17.3445 110.007 17.7473 110.007 18.1866C110.007 18.6381 110.07 19.051 110.194 19.4235C110.316 19.796 110.487 20.1199 110.705 20.3912ZM111.069 17.3303C111.146 17.0955 111.251 16.9032 111.382 16.7513C111.512 16.6036 111.665 16.4882 111.851 16.4011C112.041 16.312 112.25 16.2675 112.477 16.2675C112.704 16.2675 112.903 16.31 113.086 16.3971C113.276 16.4861 113.435 16.6056 113.574 16.7615C113.706 16.9113 113.808 17.0975 113.887 17.3323C113.97 17.5813 114.015 17.8708 114.015 18.1866C114.015 18.5186 113.972 18.8182 113.885 19.0753C113.802 19.3264 113.693 19.5328 113.55 19.7069C113.413 19.8729 113.258 19.9985 113.075 20.0875C112.892 20.1786 112.699 20.2211 112.477 20.2211C112.254 20.2211 112.054 20.1766 111.87 20.0875C111.683 19.9964 111.532 19.877 111.403 19.715C111.264 19.5409 111.152 19.3264 111.071 19.0794C110.982 18.8142 110.939 18.5146 110.939 18.1866C110.939 17.8728 110.982 17.5834 111.069 17.3303Z" fill="#FFFBFB"/>
<path d="M185.592 108.284L186.052 42.2371L232.419 42.5606L232.317 57.1523L209.278 56.9915L209.196 68.7032L230.22 68.8499L230.135 80.9456L209.112 80.7989L209.024 93.3746L232.064 93.5354L231.958 108.607L185.592 108.284ZM258.485 109.56C253.941 109.528 250.235 108.735 247.365 107.178C244.56 105.623 242.527 103.529 241.265 100.896C240.003 98.2629 239.384 95.3145 239.407 92.0506L239.746 43.4758L260.022 40.6411L259.682 89.408C259.671 90.8799 260.143 92.0352 261.098 92.8739C262.052 93.6486 263.298 94.0413 264.833 94.052C266.369 94.0627 267.908 93.6895 269.449 92.9322L270.796 106.286C269.253 107.363 267.295 108.182 264.923 108.741C262.551 109.3 260.405 109.573 258.485 109.56ZM293.332 109.803C289.044 109.773 285.562 108.981 282.885 107.426C280.271 105.872 278.366 103.779 277.168 101.146C275.971 98.5138 275.383 95.5657 275.406 92.3017L275.626 60.8145L295.881 60.9558L295.681 89.6591C295.671 91.1311 296.079 92.286 296.905 93.1237C297.795 93.898 298.849 94.2893 300.065 94.2978C301.345 94.3067 302.659 93.9319 304.009 93.1733L304.971 106.524C303.556 107.603 301.726 108.422 299.482 108.982C297.238 109.542 295.188 109.816 293.332 109.803ZM285.838 55.6056C282.894 55.5851 280.373 54.6395 278.274 52.7688C276.175 50.8341 275.136 48.4908 275.155 45.7388C275.168 43.8189 275.692 42.1585 276.726 40.7577C277.76 39.2929 279.112 38.1503 280.782 37.3299C282.451 36.5095 284.182 36.1056 285.974 36.1181C287.958 36.1319 289.747 36.5924 291.341 37.4996C292.998 38.4072 294.302 39.6003 295.252 41.0789C296.266 42.5581 296.766 44.1616 296.754 45.8895C296.741 47.8095 296.185 49.5017 295.087 50.966C294.053 52.4309 292.701 53.5735 291.031 54.3938C289.425 55.2146 287.694 55.6186 285.838 55.6056ZM329.397 110.055C324.853 110.023 321.146 109.229 318.277 107.673C315.472 106.118 313.438 104.023 312.177 101.39C310.915 98.7576 310.296 95.8092 310.318 92.5453L310.455 72.9618L304.311 72.9189L304.394 61.0152L311.978 61.0681L321.012 45.9628L330.899 46.0318L330.794 61.1994L341.929 61.2771L341.846 73.1808L330.71 73.1031L330.593 89.9027C330.583 91.3747 331.055 92.53 332.009 93.3687C332.964 94.1433 334.209 94.536 335.745 94.5468C337.281 94.5575 338.82 94.1842 340.361 93.4269L341.708 106.781C340.164 107.858 338.206 108.676 335.835 109.236C333.463 109.795 331.317 110.068 329.397 110.055ZM377.614 96.9509C379.47 96.9639 381.423 96.7855 383.474 96.4158C385.588 96.0465 387.737 95.3575 389.92 94.3487L392.138 106.748C389.761 107.948 387.163 108.858 384.343 109.478C381.586 110.099 378.416 110.397 374.832 110.372C368.368 110.327 362.936 109.233 358.535 107.09C354.197 104.948 350.922 102.013 348.708 98.2853C346.494 94.5578 345.404 90.262 345.438 85.3982C345.472 80.4063 346.687 76.0626 349.081 72.3673C351.538 68.6723 354.79 65.8149 358.837 63.7951C362.883 61.7753 367.338 60.7824 372.202 60.8163C379.434 60.8667 384.954 63.1773 388.762 67.748C392.57 72.2547 394.446 78.6679 394.388 86.9877L365.755 90.436C367.837 94.7387 371.79 96.9103 377.614 96.9509ZM364.281 81.5935L379.374 78.5308C379.133 76.481 378.439 74.9721 377.294 74.0041C376.149 72.9721 374.713 72.4501 372.985 72.438C370.425 72.4202 368.371 73.3019 366.822 75.0831C365.338 76.8008 364.491 78.9709 364.281 81.5935ZM421.079 111.463C417.047 111.434 412.955 110.894 408.802 109.841C404.649 108.852 401.138 107.515 398.27 105.831L401.835 90.2077C405.533 92.2176 408.979 93.5537 412.175 94.216C415.435 94.8147 418.441 95.1237 421.193 95.1429C423.753 95.1608 425.675 94.7582 426.961 93.9351C428.311 93.1125 428.991 91.9973 429.001 90.5893C429.01 89.3093 428.281 88.3122 426.813 87.598C425.347 86.8197 423.432 86.1023 421.068 85.4458C418.769 84.7898 416.31 84.0366 413.692 83.1863C411.074 82.272 408.586 81.1026 406.228 79.6781C403.935 78.1901 402.06 76.257 400.605 73.8788C399.15 71.4366 398.435 68.3915 398.46 64.7436C398.492 60.1357 399.64 56.1756 401.903 52.8633C404.167 49.487 407.385 46.9174 411.557 45.1545C415.73 43.3275 420.632 42.4337 426.264 42.473C430.04 42.4994 433.717 43.037 437.293 44.086C440.934 45.0714 443.837 46.4037 446.002 48.0829L442.639 62.1717C439.385 60.805 436.447 59.8245 433.828 59.2302C431.272 58.5723 428.842 58.2354 426.538 58.2193C423.85 58.2006 421.8 58.5703 420.387 59.3284C418.973 60.0866 418.262 61.1056 418.253 62.3856C418.245 63.6016 418.974 64.5987 420.44 65.3769C421.907 66.1552 423.79 66.9044 426.089 67.6244C428.388 68.3445 430.846 69.1616 433.464 70.0759C436.082 70.9902 438.537 72.1914 440.831 73.6794C443.125 75.1674 444.999 77.1006 446.455 79.4788C447.91 81.857 448.625 84.8381 448.6 88.422C448.548 95.8458 446.077 101.557 441.185 105.555C436.357 109.553 429.655 111.522 421.079 111.463ZM473.956 111.063C469.412 111.032 465.705 110.238 462.836 108.682C460.031 107.126 457.997 105.032 456.736 102.399C455.474 99.7662 454.855 96.8178 454.877 93.5539L455.014 73.9704L448.87 73.9275L448.953 62.0238L456.537 62.0767L465.571 46.9714L475.458 47.0403L475.353 62.208L486.488 62.2857L486.405 74.1894L475.269 74.1117L475.152 90.9113C475.142 92.3832 475.614 93.5386 476.568 94.3772C477.523 95.1519 478.768 95.5446 480.304 95.5553C481.84 95.5661 483.379 95.1928 484.92 94.4355L486.267 107.789C484.723 108.866 482.765 109.685 480.394 110.244C478.022 110.804 475.876 111.077 473.956 111.063ZM513.439 111.339C509.023 111.308 505.031 110.224 501.462 108.087C497.893 105.886 495.066 102.891 492.98 99.0999C490.958 95.3097 489.965 90.9826 489.999 86.1187C490.032 81.2549 491.086 77.0061 493.16 73.3725C495.297 69.7393 498.165 66.9112 501.763 64.8883C505.362 62.8014 509.369 61.7733 513.785 61.8041C516.921 61.826 519.955 62.7112 522.886 64.4597C525.818 66.2082 528.07 69.0719 529.643 73.051L529.716 62.5873L549.683 62.7266L549.348 110.821L529.188 110.681L529.25 101.753C527.693 104.878 525.628 107.264 523.056 108.91C520.485 110.556 517.279 111.366 513.439 111.339ZM519.785 96.2148C522.409 96.2331 524.655 95.3208 526.524 93.4778C528.393 91.5707 529.338 89.2413 529.357 86.4893C529.376 83.7374 528.464 81.491 526.62 79.7501C524.776 77.9452 522.543 77.0336 519.919 77.0153C517.167 76.9961 514.856 77.908 512.988 79.751C511.119 81.594 510.175 83.8595 510.156 86.5474C510.137 89.2353 511.049 91.5137 512.892 93.3826C514.735 95.2515 517.033 96.1956 519.785 96.2148ZM584.094 129.784C581.662 129.767 579.391 129.591 577.282 129.257C575.172 128.922 573.511 128.526 572.298 128.07L573.931 114.161C575.081 114.425 576.328 114.626 577.671 114.763C579.013 114.964 580.325 115.07 581.605 115.079C585.893 115.108 588.971 114.234 590.839 112.455C592.772 110.676 593.751 107.931 593.777 104.219L593.815 98.7474C592.252 102.641 590.056 105.473 587.228 107.246C584.4 108.954 581.066 109.795 577.226 109.768C571.274 109.726 566.681 107.55 563.447 103.24C560.213 98.8649 558.624 92.7417 558.679 84.8699L558.833 62.7904L579.088 62.9317L578.927 86.0672C578.887 91.763 580.883 94.625 584.915 94.6532C587.411 94.6706 589.402 93.6604 590.889 91.6228C592.439 89.5855 593.226 86.903 593.249 83.575L593.392 63.0315L613.648 63.1729L613.39 100.036C613.319 110.276 610.738 117.81 605.649 122.638C600.559 127.467 593.374 129.849 584.094 129.784Z" fill="white"/>
</svg>
